<mxfile host="app.diagrams.net" modified="2023-09-08T00:36:54.932Z" agent="Mozilla/5.0 (Windows NT 10.0; Win64; x64) AppleWebKit/537.36 (KHTML, like Gecko) Chrome/116.0.0.0 Safari/537.36" etag="v-_UN4r_9SzFhYsdaq16" version="21.7.2" type="github">
  <diagram name="Page-1" id="nNdhqq2j1d88M9aB0nOB">
    <mxGraphModel dx="1816" dy="545" grid="1" gridSize="8" guides="1" tooltips="1" connect="1" arrows="1" fold="1" page="1" pageScale="1" pageWidth="827" pageHeight="1169" math="0" shadow="0">
      <root>
        <mxCell id="0" />
        <mxCell id="1" parent="0" />
        <mxCell id="sfYe4EzIZgLn-Ph47L6n-1" value="" style="outlineConnect=0;dashed=0;verticalLabelPosition=bottom;verticalAlign=top;align=center;html=1;shape=mxgraph.aws3.router;fillColor=#F58534;gradientColor=none;" vertex="1" parent="1">
          <mxGeometry x="128" y="320" width="30" height="30" as="geometry" />
        </mxCell>
        <mxCell id="sfYe4EzIZgLn-Ph47L6n-2" value="" style="shape=image;html=1;verticalAlign=top;verticalLabelPosition=bottom;labelBackgroundColor=#ffffff;imageAspect=0;aspect=fixed;image=https://cdn2.iconfinder.com/data/icons/whcompare-servers-web-hosting/50/cloud-web-hosting-128.png;strokeWidth=1;fontSize=12;spacing=2;" vertex="1" parent="1">
          <mxGeometry x="832" y="352" width="30" height="30" as="geometry" />
        </mxCell>
        <mxCell id="sfYe4EzIZgLn-Ph47L6n-4" value="" style="image;html=1;image=img/lib/clip_art/networking/Firewall-page1_128x128.png" vertex="1" parent="1">
          <mxGeometry x="448" y="192" width="30" height="30" as="geometry" />
        </mxCell>
        <mxCell id="sfYe4EzIZgLn-Ph47L6n-6" value="DMZ&amp;nbsp;" style="text;html=1;align=center;verticalAlign=middle;resizable=0;points=[];autosize=1;strokeColor=none;fillColor=none;" vertex="1" parent="1">
          <mxGeometry x="808" y="296" width="48" height="32" as="geometry" />
        </mxCell>
        <mxCell id="sfYe4EzIZgLn-Ph47L6n-8" value="HoneyNet&amp;nbsp;" style="text;html=1;align=center;verticalAlign=middle;resizable=0;points=[];autosize=1;strokeColor=none;fillColor=none;" vertex="1" parent="1">
          <mxGeometry x="-25" y="216" width="80" height="32" as="geometry" />
        </mxCell>
        <mxCell id="sfYe4EzIZgLn-Ph47L6n-9" value="" style="sketch=0;outlineConnect=0;fontColor=#232F3E;gradientColor=none;fillColor=#232F3D;strokeColor=none;dashed=0;verticalLabelPosition=bottom;verticalAlign=top;align=center;html=1;fontSize=12;fontStyle=0;aspect=fixed;pointerEvents=1;shape=mxgraph.aws4.servers;" vertex="1" parent="1">
          <mxGeometry y="392" width="30" height="30" as="geometry" />
        </mxCell>
        <mxCell id="sfYe4EzIZgLn-Ph47L6n-10" value="" style="sketch=0;outlineConnect=0;fontColor=#232F3E;gradientColor=none;fillColor=#232F3D;strokeColor=none;dashed=0;verticalLabelPosition=bottom;verticalAlign=top;align=center;html=1;fontSize=12;fontStyle=0;aspect=fixed;pointerEvents=1;shape=mxgraph.aws4.servers;" vertex="1" parent="1">
          <mxGeometry y="256" width="30" height="30" as="geometry" />
        </mxCell>
        <mxCell id="sfYe4EzIZgLn-Ph47L6n-11" value="" style="sketch=0;outlineConnect=0;fontColor=#232F3E;gradientColor=none;fillColor=#232F3D;strokeColor=none;dashed=0;verticalLabelPosition=bottom;verticalAlign=top;align=center;html=1;fontSize=12;fontStyle=0;aspect=fixed;pointerEvents=1;shape=mxgraph.aws4.servers;" vertex="1" parent="1">
          <mxGeometry y="320" width="30" height="30" as="geometry" />
        </mxCell>
        <mxCell id="sfYe4EzIZgLn-Ph47L6n-12" value="" style="sketch=0;outlineConnect=0;fontColor=#232F3E;gradientColor=none;fillColor=#2E27AD;strokeColor=none;dashed=0;verticalLabelPosition=bottom;verticalAlign=top;align=center;html=1;fontSize=12;fontStyle=0;aspect=fixed;pointerEvents=1;shape=mxgraph.aws4.rds_sql_server_instance;" vertex="1" parent="1">
          <mxGeometry x="448" y="64" width="30" height="30" as="geometry" />
        </mxCell>
        <mxCell id="sfYe4EzIZgLn-Ph47L6n-13" value="Intranet" style="text;html=1;align=center;verticalAlign=middle;resizable=0;points=[];autosize=1;strokeColor=none;fillColor=none;" vertex="1" parent="1">
          <mxGeometry x="431" y="24" width="64" height="32" as="geometry" />
        </mxCell>
        <mxCell id="sfYe4EzIZgLn-Ph47L6n-15" value="" style="endArrow=none;html=1;rounded=0;entryX=0;entryY=0.5;entryDx=0;entryDy=0;entryPerimeter=0;" edge="1" parent="1" target="sfYe4EzIZgLn-Ph47L6n-1">
          <mxGeometry width="50" height="50" relative="1" as="geometry">
            <mxPoint x="32" y="335" as="sourcePoint" />
            <mxPoint x="80" y="288" as="targetPoint" />
          </mxGeometry>
        </mxCell>
        <mxCell id="sfYe4EzIZgLn-Ph47L6n-16" value="" style="sketch=0;pointerEvents=1;shadow=0;dashed=0;html=1;strokeColor=none;fillColor=#505050;labelPosition=center;verticalLabelPosition=bottom;verticalAlign=top;outlineConnect=0;align=center;shape=mxgraph.office.servers.reverse_proxy;" vertex="1" parent="1">
          <mxGeometry x="448" y="256" width="30" height="30" as="geometry" />
        </mxCell>
        <mxCell id="sfYe4EzIZgLn-Ph47L6n-17" value="" style="sketch=0;points=[[0.015,0.015,0],[0.985,0.015,0],[0.985,0.985,0],[0.015,0.985,0],[0.25,0,0],[0.5,0,0],[0.75,0,0],[1,0.25,0],[1,0.5,0],[1,0.75,0],[0.75,1,0],[0.5,1,0],[0.25,1,0],[0,0.75,0],[0,0.5,0],[0,0.25,0]];verticalLabelPosition=bottom;html=1;verticalAlign=top;aspect=fixed;align=center;pointerEvents=1;shape=mxgraph.cisco19.rect;prIcon=next_generation_intrusion_prevention_system;fillColor=#FAFAFA;strokeColor=#005073;" vertex="1" parent="1">
          <mxGeometry x="448" y="128" width="30" height="30" as="geometry" />
        </mxCell>
        <mxCell id="sfYe4EzIZgLn-Ph47L6n-18" value="" style="outlineConnect=0;dashed=0;verticalLabelPosition=bottom;verticalAlign=top;align=center;html=1;shape=mxgraph.aws3.router;fillColor=#F58534;gradientColor=none;" vertex="1" parent="1">
          <mxGeometry x="568" y="352" width="30" height="30" as="geometry" />
        </mxCell>
        <mxCell id="sfYe4EzIZgLn-Ph47L6n-21" value="" style="endArrow=none;html=1;rounded=0;exitX=1;exitY=0.5;exitDx=0;exitDy=0;exitPerimeter=0;" edge="1" parent="1" source="sfYe4EzIZgLn-Ph47L6n-18" target="sfYe4EzIZgLn-Ph47L6n-2">
          <mxGeometry width="50" height="50" relative="1" as="geometry">
            <mxPoint x="670" y="362" as="sourcePoint" />
            <mxPoint x="720" y="312" as="targetPoint" />
          </mxGeometry>
        </mxCell>
        <mxCell id="sfYe4EzIZgLn-Ph47L6n-23" value="" style="image;aspect=fixed;perimeter=ellipsePerimeter;html=1;align=center;shadow=0;dashed=0;spacingTop=3;image=img/lib/active_directory/generic_server.svg;" vertex="1" parent="1">
          <mxGeometry x="680" y="352" width="16.8" height="30" as="geometry" />
        </mxCell>
        <mxCell id="sfYe4EzIZgLn-Ph47L6n-24" value="" style="image;html=1;image=img/lib/clip_art/networking/Firewall-page1_128x128.png" vertex="1" parent="1">
          <mxGeometry x="608" y="352" width="40" height="32" as="geometry" />
        </mxCell>
        <mxCell id="sfYe4EzIZgLn-Ph47L6n-25" style="edgeStyle=orthogonalEdgeStyle;rounded=0;orthogonalLoop=1;jettySize=auto;html=1;exitX=0;exitY=0.5;exitDx=0;exitDy=0;entryX=1.289;entryY=0.422;entryDx=0;entryDy=0;entryPerimeter=0;" edge="1" parent="1" source="sfYe4EzIZgLn-Ph47L6n-23" target="sfYe4EzIZgLn-Ph47L6n-23">
          <mxGeometry relative="1" as="geometry" />
        </mxCell>
      </root>
    </mxGraphModel>
  </diagram>
</mxfile>
